<?xml version="1.0" standalone="no"?>
<!DOCTYPE svg PUBLIC "-//W3C//DTD SVG 1.1//EN" "http://www.w3.org/Graphics/SVG/1.1/DTD/svg11.dtd" >
<svg xmlns="http://www.w3.org/2000/svg" xmlns:xlink="http://www.w3.org/1999/xlink" version="1.1">
<metadata>
Created by FontForge 20170731 at Wed Feb 14 20:52:01 2001
 By Aleksey,,,
(C)2001 Nate Piekos.  www.piekosarts.com/blambotfonts
</metadata>
<defs>
<font id="MangaTempleItalic" horiz-adv-x="391" >
  <font-face 
    font-family="Manga Temple"
    font-weight="400"
    font-style="italic"
    font-stretch="normal"
    units-per-em="1024"
    panose-1="2 11 6 3 5 3 2 2 2 4"
    ascent="819"
    descent="-205"
    x-height="842"
    cap-height="861"
    bbox="-95 -167 993 991"
    underline-thickness="0"
    underline-position="0"
    slope="-11"
    unicode-range="U+0020-2026"
  />
<missing-glyph horiz-adv-x="512" 
d="M64 0v991h384v-991h-384zM128 64h256v863h-256v-863z" />
    <glyph glyph-name=".notdef" horiz-adv-x="512" 
d="M64 0v991h384v-991h-384zM128 64h256v863h-256v-863z" />
    <glyph glyph-name=".null" horiz-adv-x="0" 
 />
    <glyph glyph-name="nonmarkingreturn" 
 />
    <glyph glyph-name="space" unicode=" " 
 />
    <glyph glyph-name="exclam" unicode="!" horiz-adv-x="477" 
d="M520 904q-34 -162 -126 -315q-32 -52 -112 -187q-14 -24 -52 -85q-33 -41 -59 -41q-15 0 -24.5 12.5t-6.5 26.5q2 11 33 61q14 22 40 66q158 279 162 492q15 29 71 29q76 0 76 -45q0 -7 -2 -14zM34 5q-24 0 -40.5 13.5t-16.5 37.5q0 45 54 83q43 31 82 31q24 0 40 -14
t16 -37q0 -46 -53 -83q-43 -31 -82 -31z" />
    <glyph glyph-name="quotedbl" unicode="&#x22;" horiz-adv-x="464" 
d="M416 891l-7 -35q-2 -14 -32 -126q-12 -41 -44 -146q-18 -41 -45 -41q-18 0 -30.5 14.5t-12.5 31.5q0 13 21 91q25 88 30 153q5 55 6 61q10 37 39 37q20 0 42.5 -12t32.5 -28zM219 891l-7 -37q-6 -34 -34 -137.5t-42 -132.5q-18 -41 -44 -41q-18 0 -30 14t-12 32
q0 12 21 91q23 87 30 152q5 56 6 61q10 38 39 38q19 0 41.5 -12t31.5 -28z" />
    <glyph glyph-name="numbersign" unicode="#" horiz-adv-x="687" 
d="M407 55q-34 0 -34 44q0 19 17 62q12 30 16 45q3 15 -12 16q-1 0 -84 3q-34 5 -69 5q-15 0 -22 -14q-14 -44 -44 -131q-36 -100 -75 -100q-18 0 -27.5 16t-6.5 34l2 8q2 8 31 91q20 56 28 91q3 17 -8 21q-19 3 -57.5 10.5t-33.5 31.5q4 17 19.5 28.5t33.5 11.5
q8 0 25.5 -4t26.5 -4q12 0 21 16l7 27q13 53 3 67q-6 9 -64 19q-49 8 -44 33q4 16 18.5 28t31.5 12q8 0 23 -3.5t23 -3.5q36 0 36 90q0 57 -13 142q6 22 35 35q24 10 51 10q65 0 69 -43q2 -23 -10 -124q-12 -94 -7 -106t19 -12q41 0 113 10q16 2 27 15q24 22 20 159
q-3 79 -11 127q6 22 36 35q24 10 51 10q65 0 68 -43q6 -84 -27 -241q-4 -19 9 -19q6 0 24 9q18 -1 23 -25q3 -18 -2 -40q-8 -40 -30 -55q-7 -5 -37 -13q-22 -6 -29 -21q-10 -22 -14 -43q-3 -16 7 -16q6 0 54 19q17 -1 22 -26q3 -18 -1 -40q-10 -43 -40 -59q-12 -6 -55 -13
q-32 -5 -41 -24q-10 -31 -32 -92q-26 -66 -60 -66zM454 371q2 13 2 22q0 26 -20 26q-8 0 -25 -1.5t-26 -1.5q-13 0 -39.5 2t-40.5 2q-23 0 -36 -37q-2 -7 -13 -57q-3 -13 12 -13q110 0 161 11q15 3 25 47z" />
    <glyph glyph-name="dollar" unicode="$" horiz-adv-x="564" 
d="M434 351q-51 -57 -120 -100q-7 -21 -22 -64q-17 -46 -40 -46q-17 0 -19 35q-2 34 0 34q-9 0 -46 -11.5t-38 -15.5q-4 -19 -16 -44q-16 -32 -30 -32q-5 0 -9 4q-14 14 -12 33q1 2 9 39q1 4 -10 7q-53 13 -72 43q-4 79 29 79q-1 0 39 -26t73 -26q68 0 155 48
q113 62 113 133q0 35 -36 56q-30 17 -68 17q-28 0 -86 -9q-63 -10 -80 -19q-45 -24 -58 -24q-11 0 -20 8q-21 16 -21 45q0 15 9 57q31 144 146 212q-2 59 -1 64q9 43 61 43q30 0 38 -20q3 -8 3 -46q47 4 49 17q2 7 0 22.5t0 22.5q4 17 23 27t38 10q38 0 42 -34q0 -2 -4 -65
q21 -16 37.5 -46t11.5 -54q-9 -40 -104 -46q-9 5 -17 21.5t-14 21.5q-187 -5 -212 -124q-4 -18 9 -18q6 0 18 5q102 43 200 43q130 0 130 -106q0 -83 -78 -171z" />
    <glyph glyph-name="percent" unicode="%" horiz-adv-x="854" 
d="M18 -54q-25 0 -25 26q0 44 42 84q35 32 123 114q234 221 409 448q89 115 137 193q20 34 67 109q16 18 35 18q38 0 58 -40q17 -37 9 -74q-7 -32 -39 -75q-18 -24 -55 -71q-162 -210 -325 -361q-47 -43 -251 -231q-29 -28 -90 -84t-95 -56zM794 238q-21 -99 -115 -187
q-98 -92 -197 -92q-48 0 -74.5 28t-26.5 75q0 19 5 41q21 100 116 188q100 92 198 92q99 0 99 -101q0 -20 -5 -44zM455 615q-21 -99 -116 -188q-98 -92 -197 -92q-47 0 -73 28t-26 75q0 20 5 43q21 98 118.5 188.5t195.5 90.5t98 -102q0 -20 -5 -43zM697 211q4 19 -25 19
q-57 0 -126 -49.5t-81 -103.5q-4 -22 26 -22q56 0 125 51t81 105zM358 590q4 17 -25 17q-54 0 -125 -50.5t-82 -101.5q-5 -23 26 -23q57 0 126 51.5t80 106.5z" />
    <glyph glyph-name="ampersand" unicode="&#x26;" horiz-adv-x="725" 
d="M671 202q-6 -31 -137 -58q-154 -32 -165.5 -38t-37.5 -69q-23 -57 -54 -57q-16 0 -25.5 13t-9.5 29q0 10 5 24q7 19 8 24q3 13 -15 13q-11 -2 -62 -12q-110 -21 -162 -21q-66 0 -58 40q16 72 299 317q-129 60 -129 126q0 62 96 112q44 21 130 63q13 7 16 21q3 13 -5 77
q12 48 94 48q36 0 51 -20q6 -9 11 -38q3 -20 13 -20q3 0 95 32q52 -11 82 -65q22 -40 22 -80q0 -15 -3 -30q-11 -51 -51 -51q-29 0 -67 29q-44 -6 -132 -19q-74 -12 -130 -43q-33 -18 -35 -29q-3 -15 36 -38q17 -9 51 -29q51 -13 48 -26q-2 -12 -53 -31q-46 -46 -143 -115
q-135 -96 -143 -131q-3 -17 26 -17q96 0 401 76q84 21 93 21q46 0 40 -28z" />
    <glyph glyph-name="quotesingle" unicode="'" horiz-adv-x="286" 
d="M281 891q-12 -23 -156 -263q-7 -12 -27 -44q-32 -40 -60 -40q-16 0 -24.5 12.5t-4.5 28.5q1 6 6 14l83 144q45 78 72 148q9 23 20 30.5t35 7.5q47 0 56 -38z" />
    <glyph glyph-name="parenleft" unicode="(" horiz-adv-x="403" 
d="M235 -62q-55 0 -138 164q-58 116 -58 238q0 216 188 448q123 151 166 151q35 0 48 -40q10 -33 2 -69q-7 -36 -31 -66q-275 -190 -275 -416q0 -128 80 -271q13 -23 37 -57q34 -30 31 -44t-19.5 -26t-30.5 -12z" />
    <glyph glyph-name="parenright" unicode=")" horiz-adv-x="441" 
d="M291 495q0 140 -132 269q-6 17 -6 37q0 51 36 99q29 39 63 39q44 0 102 -151q45 -115 45 -226q0 -238 -208 -460q-153 -164 -205 -164q-15 0 -26 12t-8 26q2 12 20 25q36 22 90 76q229 230 229 418z" />
    <glyph glyph-name="asterisk" unicode="*" horiz-adv-x="552" 
d="M361 689q22 -83 19 -98q-4 -17 -18 -28.5t-31 -11.5q-15 0 -19 11q-10 35 -34 102q-23 -24 -70 -70q-52 -50 -75 -50q-15 0 -24.5 12t-6.5 26q1 5 47 53q44 45 56 59q-80 12 -120 24q-27 8 -20 38q7 35 31 35q19 0 54.5 -6.5t50.5 -7.5q-36 33 -84 56q-1 3 0 7
q4 20 45 46t64 26q20 0 71 -68q17 42 26 91q5 6 16 6q24 0 56 -22.5t27 -45.5q-4 -19 -37 -74q49 15 93 40q14 -2 14 -28q0 -15 -5 -39q-11 -51 -43 -67q-17 -8 -83 -16z" />
    <glyph glyph-name="plus" unicode="+" horiz-adv-x="610" 
d="M251 141q-14 0 -24.5 10t-7.5 24l1 5q2 7 29 87q17 51 25 88q5 25 -43 34l-66 6q-125 12 -117 50q3 14 15 26t26 12h4q10 0 87 -9q51 -6 87 -6q27 0 27 59q0 48 -20 120q7 30 70 30q47 0 59 -27q7 -17 2 -69q-4 -24 -10 -72q-3 -27 20 -27q24 0 77 18q41 14 78 31
q21 -2 21 -33q0 -14 -4 -33q-11 -50 -40 -62q-22 -9 -92 -16q-66 -8 -81 -16t-36 -69q-33 -95 -37 -106q-24 -55 -50 -55z" />
    <glyph glyph-name="comma" unicode="," horiz-adv-x="317" 
d="M297 177q-28 -53 -75 -131l-80 -129q-7 -13 -27 -45q-31 -39 -59 -39q-16 0 -24.5 12t-4.5 28q2 9 5 14l83 143q47 82 71 147q15 39 56 39q47 0 55 -39z" />
    <glyph glyph-name="hyphen" unicode="-" horiz-adv-x="673" 
d="M364 303q-42 0 -142 12q-107 12 -137 23q-35 12 -30 35q8 38 46 38q21 0 45 -4q17 -3 42 -7q39 -3 84 -3q170 0 307 62q21 -1 21 -32q0 -14 -4 -34q-11 -50 -49 -67q-17 -8 -86 -16q-58 -7 -97 -7z" />
    <glyph glyph-name="hyphen" unicode="&#x2010;" horiz-adv-x="673" 
d="M364 303q-42 0 -142 12q-107 12 -137 23q-35 12 -30 35q8 38 46 38q21 0 45 -4q17 -3 42 -7q39 -3 84 -3q170 0 307 62q21 -1 21 -32q0 -14 -4 -34q-11 -50 -49 -67q-17 -8 -86 -16q-58 -7 -97 -7z" />
    <glyph glyph-name="period" unicode="." horiz-adv-x="310" 
d="M130 0q-24 0 -40.5 14t-16.5 37q0 46 53 84q43 30 82 30q24 0 40 -14t16 -38q0 -46 -52 -83q-43 -30 -82 -30z" />
    <glyph glyph-name="slash" unicode="/" horiz-adv-x="769" 
d="M-45 -74q-23 0 -23 26q0 46 41.5 85t150.5 142q213 204 379 419q89 115 137 193q21 34 68 110q17 18 35 18q37 0 57 -41q18 -36 10 -73q-7 -33 -39 -75q-18 -24 -56 -71q-163 -211 -324 -361q-71 -64 -253 -232q-29 -28 -87 -83q-63 -57 -96 -57z" />
    <glyph glyph-name="zero" unicode="0" horiz-adv-x="768" 
d="M738 577q-34 -159 -145 -311.5t-252 -229.5q-92 -50 -162 -50q-110 0 -147 99q-16 44 -16 99q0 46 12 101q33 157 145 310.5t251 230.5q92 51 162 51q111 0 147 -100q17 -44 17 -99q0 -46 -12 -101zM584 702q-52 0 -115 -30q-127 -61 -226 -168t-145 -238
q-16 -45 -16 -81q1 -80 87 -80q102 0 221 88q96 71 172 173q82 109 102 200q6 28 6 51q0 85 -86 85z" />
    <glyph glyph-name="one" unicode="1" horiz-adv-x="454" 
d="M189 -9q-20 0 -29 17t-5 36l2 8q1 6 51 169q29 98 45 169q19 93 26 181q4 47 -16 47q-14 0 -46.5 -10t-49.5 -10q-47 0 -47 39q0 51 67 113q43 39 97 70q26 30 77 30q63 0 68 -45q4 -37 -9 -134q-10 -82 -22 -138q-18 -83 -53 -190q-22 -63 -64 -188q-10 -30 -36 -106
q-27 -58 -56 -58z" />
    <glyph glyph-name="two" unicode="2" horiz-adv-x="592" 
d="M31 0q-70 0 -70 46q0 52 103 199q74 107 172 258q76 118 78 129q5 22 -19 22q-31 0 -105.5 -37t-86.5 -37q-22 0 -26 30q-4 22 2 48q11 51 44 78q83 66 379 118q11 2 22 2q42 0 42 -55q0 -9 -2 -18q-4 -21 -42 -70q-26 -35 -92 -124q-93 -125 -188 -241q-53 -64 -84 -108
q-63 -87 -64 -120q0 -33 54 -33q65 0 161 24l161 41q12 2 20 2q29 0 24 -22q-7 -32 -58 -47q-98 -29 -214 -54q-144 -31 -211 -31z" />
    <glyph glyph-name="three" unicode="3" horiz-adv-x="634" 
d="M373 206q-201 -167 -320 -206q-12 -4 -22 -4q-23 0 -23 19q0 25 40 47q88 47 201 130q146 107 156 157q7 30 -29 30q-33 0 -99 -17q-61 -16 -97 -31q-14 -6 -17 -6q-9 0 -9 12q0 18 28 54q21 26 83 130q59 99 60 105t1 10q0 12 -10 12q-36 0 -113.5 -38t-89.5 -38
q-29 0 -30 39q0 16 5 38q11 53 45 79q56 43 183 77q49 13 195 41q16 3 23 3q42 0 42 -55q0 -35 -45 -88q-22 -31 -67 -92q-19 -23 -64 -84q-9 -12 -11 -23t8 -11q15 0 75.5 21t91.5 21q45 0 45 -38q-1 -98 -236 -294z" />
    <glyph glyph-name="four" unicode="4" horiz-adv-x="631" 
d="M607 381q-5 -23 -32 -32q-5 -1 -45 -6q-5 -1 -14 -5q-13 -6 -41 -97q-37 -122 -53 -160q-34 -84 -66 -84q-19 0 -28.5 17t-5.5 36l2 9q3 16 38 116q26 71 35 116q4 19 4 23q-2 10 -16 10h-8q-23 0 -158 -20q-101 -15 -158 -15q-55 0 -49 32q8 34 200 234q116 118 231 236
l-3 18q6 23 36 37q25 11 52 11q41 0 55 -16.5t14 -55.5q0 -80 -35 -246q-4 -18 -13 -52.5t-13 -52.5q-1 -7 -1 -12q0 -15 13 -15q5 0 16 1.5t16 1.5q33 0 27 -29zM437 492q2 22 6 55q4 29 -12 29q-3 0 -9 -2q-195 -168 -199 -183q-2 -11 42 -11q125 0 146 20q19 17 26 92z
" />
    <glyph glyph-name="five" unicode="5" horiz-adv-x="572" 
d="M238 578l-24 -115q-1 -5 -1 -9q0 -10 8 -10q-67 0 90 48t191 48q50 0 50 -41q0 -98 -238 -294q-201 -166 -318 -205q-12 -4 -20 -4q-29 0 -23 26q5 22 38 41q110 65 201 130q145 104 156 156q7 30 -30 30q-33 0 -97.5 -16t-97.5 -31q-13 -6 -16 -6q-6 0 -7 8h-1q1 5 1 19
l14 261q-6 12 -6 28q0 54 39 86q44 36 189 79q139 41 198 41q31 0 51 -37q16 -28 16 -53q0 -43 -39 -52q-148 -37 -282 -79q-34 -10 -42 -49z" />
    <glyph glyph-name="six" unicode="6" horiz-adv-x="730" 
d="M617 186q-86 -83 -212.5 -132t-249.5 -49q-100 0 -150 36q-32 23 -32 71q0 19 5 42q32 149 217 360q145 166 321 306q59 47 87 47q35 0 35 -57q2 -83 -18 -176q-8 -36 -28 -70q-26 -44 -57 -44q-18 0 -31 43.5t-23 43.5q-27 0 -148.5 -101.5t-127.5 -129.5q-1 -5 5 -5
q5 0 40 15l48 20q112 40 209 40q73 0 123 -20q69 -29 69 -92q0 -69 -82 -148zM452 327q-85 0 -191 -35q-132 -44 -160 -110q-1 -83 126 -83q119 0 245 64q101 51 101 105q0 33 -47 49q-32 10 -74 10z" />
    <glyph glyph-name="seven" unicode="7" horiz-adv-x="706" 
d="M718 743q-92 -193 -209 -352q-48 -64 -171 -232q-23 -33 -87 -117q-47 -58 -80 -58q-12 0 -18 11t-3 22q2 11 15 29q168 239 208 299q163 249 163 313q0 24 -32 24q-59 0 -146 -28q-42 -14 -137 -52q-69 -28 -85 -28q-27 0 -34 30q-6 24 0 54q12 57 60 85q32 19 129 45
q81 22 134 31q139 23 261 23q58 0 58 -33q0 -12 -26 -66z" />
    <glyph glyph-name="eight" unicode="8" horiz-adv-x="793" 
d="M658 179q-91 -80 -214 -129q-127 -51 -244 -51q-84 0 -141 28q-74 36 -74 111q0 99 116 199q40 29 92 67q11 8 13 21q2 6 -8 42q-6 20 -6 40q0 69 55 143q44 59 111 109q134 98 257 98q63 0 102 -29q44 -32 44 -92q0 -73 -64 -157q-48 -64 -48 -66q-1 -6 8 -10
q71 -32 91 -55q25 -27 25 -69q0 -99 -115 -200zM583 720q-78 0 -180 -73q-108 -77 -108 -152q0 -22 18 -31q45 18 170 46q11 2 39 10t73 64q50 63 50 97q0 39 -62 39zM576 415q-111 0 -246 -55q-138 -55 -214 -133q-53 -55 -54 -101q0 -59 112 -59q119 0 268 64
q163 70 226 169q18 28 18 55q0 60 -110 60z" />
    <glyph glyph-name="nine" unicode="9" horiz-adv-x="771" 
d="M236 -14q-11 0 -17.5 10.5t-4.5 21.5q4 19 101.5 148.5t100.5 143.5q2 9 -5 9q9 0 -32 -7q-68 -24 -130 -24q-77 0 -128 39q-55 42 -55 117q0 23 6 48q30 143 174 255t292 112q83 0 132 -42q39 27 94 27q46 0 46 -29q0 -5 -1 -11t-27 -60q-91 -192 -208 -352
q-31 -40 -172 -231q-23 -33 -86 -117q-48 -58 -80 -58zM594 634q5 83 -89 83q-102 0 -210 -78q-111 -81 -132 -178q-3 -17 -3 -31q0 -71 90 -71q71 0 155.5 44t125.5 102q18 27 63 129z" />
    <glyph glyph-name="colon" unicode=":" horiz-adv-x="300" 
d="M160 386q-23 0 -39 13.5t-16 36.5q0 46 52 84q44 31 83 31q24 0 40 -13.5t16 -37.5q0 -46 -53 -83q-44 -31 -83 -31zM80 0q-24 0 -41 14t-17 37q0 46 53 84q44 30 83 30q24 0 40 -14t16 -38q0 -46 -52 -83q-43 -30 -82 -30z" />
    <glyph glyph-name="semicolon" unicode=";" horiz-adv-x="306" 
d="M205 386q-23 0 -39.5 14t-16.5 37q0 45 53 83q43 31 82 31q24 0 41 -14t17 -37q0 -46 -54 -83q-44 -31 -83 -31zM261 177q-43 -81 -156 -260q-8 -16 -27 -45q-31 -39 -59 -39q-16 0 -24.5 12.5t-5.5 27.5q1 6 6 14l84 143q44 78 71 147q15 39 55 39q47 0 56 -39z" />
    <glyph glyph-name="less" unicode="&#x3c;" horiz-adv-x="483" 
d="M478 751q-195 -167 -319 -335q45 -206 136 -368l21 -36q10 -21 6 -41q-3 -14 -15.5 -25t-26.5 -11q-42 0 -146 207q-51 103 -78 226q-20 21 -16 43q5 23 35 44q131 236 343 448q23 8 43 8q28 0 50.5 -21t22.5 -50q0 -41 -56 -89z" />
    <glyph glyph-name="equal" unicode="=" horiz-adv-x="700" 
d="M411 431q-29 0 -243 25q-20 2 -68 9q-38 12 -33 35q8 38 50 38q22 0 49 -4q20 -3 49 -7q48 -4 96 -4q189 0 341 63q17 -1 22 -26q3 -21 -1 -40q-10 -49 -44 -62q-68 -27 -218 -27zM388 236q-58 0 -125 9q-41 6 -124 17q-18 2 -67 9q-38 12 -33 35q8 38 50 38q22 0 49 -4
q20 -3 48 -7q48 -4 97 -4q189 0 341 63q18 -1 21 -26q3 -19 -1 -40q-12 -55 -62 -68q-80 -22 -194 -22z" />
    <glyph glyph-name="greater" unicode="&#x3e;" horiz-adv-x="486" 
d="M407 368q-78 -121 -175 -226q-190 -207 -233 -207q-14 0 -21.5 10.5t-4.5 24.5q3 17 24 42q33 33 116 122q108 120 213 282q-54 166 -177 335q-24 32 -24 61q0 39 42 73q34 26 67 26q20 0 39 -8q121 -213 153 -448q21 -21 16 -44q-4 -22 -35 -43z" />
    <glyph glyph-name="question" unicode="?" horiz-adv-x="656" 
d="M220 679q-77 -92 -114 -92q-27 0 -27 43q0 66 40 154q285 153 454 153q132 0 132 -92q0 -106 -168 -263q-97 -91 -233 -184q-88 -137 -114 -137q-11 0 -11 25q0 24 11 74q12 59 21 73q10 8 57 44q235 184 248 246q7 32 -46 32q-66 0 -250 -76zM108 0q-24 0 -40.5 13.5
t-16.5 36.5q0 46 53 84q43 30 82 30q24 0 40.5 -14t16.5 -37q0 -47 -53 -83q-43 -30 -82 -30z" />
    <glyph glyph-name="at" unicode="@" horiz-adv-x="1003" 
d="M973 524q-26 -123 -106 -237q-76 -106 -184 -184q-24 -17 -46 -17q-43 0 -65 44q-8 15 -3 77q1 16 -18 16q-9 0 -26 -9q-111 -56 -211 -56q-64 0 -106 30q-48 34 -48 94q0 17 4 36q25 121 171 217q136 90 261 90q65 0 110 -28q54 -32 54 -93q0 -15 -4 -32
q-5 -25 -41.5 -94t-54.5 -153q-4 -16 -4 -27q0 -23 15 -23q17 0 88 70q97 95 121 207q6 26 6 50q0 28 -8 54q-6 23 -39 90q-44 93 -202 93q-79 0 -145 -19q-56 -17 -133 -59q-44 -23 -172 -167q-72 -81 -91 -170q-7 -33 -7 -61q-1 -117 119 -174q61 -29 137 -29q16 0 48.5 5
t48.5 5q30 0 30 -38q0 -7 -1 -14q-10 -47 -149 -47q-165 0 -242 106q-53 73 -53 174q0 46 11 98q46 217 242.5 385.5t415.5 168.5q160 0 237 -111q51 -73 51 -172q0 -45 -11 -96zM637 399q0 33 -50 50q-36 13 -78 13q-66 0 -134 -26q-72 -29 -111 -76q-20 -24 -20 -45
q0 -33 49 -49q35 -12 77 -12q66 0 134 26q74 29 113 75q20 25 20 44z" />
    <glyph glyph-name="A" unicode="A" horiz-adv-x="686" 
d="M583 135l-3 -14q-6 -29 -22 -49q-20 -25 -46 -25q-22 0 -30 33q-4 17 -11 52q-4 13 -13 49l-10 11l-15 4q-248 -43 -306 -76q-17 -10 -55 -68q-31 -47 -70 -47q-18 0 -30 12t-12 30q0 22 33 61l42 48q231 284 320 500q17 40 38 142q8 37 77 37q67 0 59 -38q-1 -7 -15 -43
l8 -234q6 -126 22 -231q19 -1 34 -14t12 -31q-5 -20 -32 -31q3 -12 25 -78zM427 291l2 13q-7 59 -23 140q-3 15 -14 15q-12 0 -27 -22q-67 -92 -132 -177l1 -11l5 -4q98 24 177 34z" />
    <glyph glyph-name="B" unicode="B" horiz-adv-x="607" 
d="M54 11q-14 -11 -27 -11q-32 0 -32 36q0 18 21 78l24 67q69 222 69 408q0 75 -12 142q13 44 81 44q24 0 39 -8q188 91 303 91q93 0 92 -64q0 -102 -226 -315q34 4 63 4q58 0 97 -19q50 -26 50 -78q0 -118 -206 -249q-134 -85 -336 -126zM467 689q4 19 -25 19
q-28 0 -92 -22q-60 -21 -90 -38q-22 -12 -27 -34q-14 -68 -13 -98q1 -15 18 -15q5 0 11 1q205 123 218 187zM247 399q-40 0 -57 -23q-18 -68 -37 -128q-4 -11 -22 -60q-14 -38 -19 -60t10 -22q13 0 84 26q239 88 239 183q0 84 -198 84z" />
    <glyph glyph-name="C" unicode="C" horiz-adv-x="651" 
d="M101 2q-140 0 -140 107q0 144 222 396q147 166 319 303q59 47 88 47q33 0 35 -57q1 -76 -20 -176q-7 -36 -28 -69q-26 -44 -56 -44q-20 0 -31.5 42.5t-21.5 42.5q-8 0 -19 -6q-107 -60 -215 -170q-149 -151 -147 -250q1 -69 95 -69q110 0 308 114q30 21 83 51q10 4 27 4
q38 0 38 -30q1 -26 -19 -48q-11 -13 -30 -23q-105 -58 -242 -107q-162 -58 -246 -58z" />
    <glyph glyph-name="D" unicode="D" horiz-adv-x="782" 
d="M543 297q-185 -186 -423 -292q-16 -13 -54 -13q-30 0 -30 26q0 25 45 165q33 101 44 152q27 125 27 232q0 31 -3 61q-45 2 -45 44q0 51 102 84q66 23 200 67q106 33 201 33q76 0 125 -36q55 -41 55 -114q0 -163 -244 -409zM494 680q-105 0 -184 -29q-20 -8 -25 -30l-2 -8
q-1 -11 -12 -103q-7 -63 -16 -103q-17 -81 -54 -201q-14 -41 -26 -77q-1 -5 -1 -9q0 -9 7 -9q5 0 21 7q111 50 247 186q174 173 174 282q0 94 -129 94z" />
    <glyph glyph-name="E" unicode="E" horiz-adv-x="722" 
d="M652 131q-5 -23 -66 -48q-237 -96 -394 -96q-113 0 -175 67q-45 48 -44 120q0 27 6 58q41 190 239 380q179 171 380 249q51 1 82 -59q21 -39 21 -78q0 -15 -4 -30q-12 -58 -50 -58q-17 0 -48 18.5t-34 18.5q-59 0 -215.5 -122t-168.5 -178q-2 -12 10 -12q6 0 20 4
q206 56 318 56q63 0 63 -39q0 -33 -32 -44q-22 -2 -73 -8q-55 -7 -177 -36q-125 -30 -172 -52q-28 -13 -28 -49q0 -50 60 -79q48 -23 104 -23q63 0 145 20q36 9 147 42q30 9 47 9q15 0 28.5 -9t10.5 -22z" />
    <glyph glyph-name="F" unicode="F" horiz-adv-x="641" 
d="M570 328q-17 -1 -61 -6q-64 -7 -158 -27q-102 -21 -157 -43q-33 -13 -38 -37q-21 -100 -30 -128q-31 -96 -73 -96q-19 0 -30.5 14t-7.5 32q5 24 17 71.5t17 71.5q45 208 45 384q0 72 -8 138q6 22 21 31q8 5 35 9q51 8 184 63q121 50 178 50q68 0 105 -56q23 -35 42 -117
q-6 -31 -40 -69q-36 -41 -65 -41t-29 45q0 9 1 20q-33 56 -84 56q-65 0 -153 -33q-39 -15 -67 -137q-23 -100 -22 -165q-1 -9 8 -9q5 0 20 4q201 53 326 53q57 0 57 -36q0 -32 -33 -42z" />
    <glyph glyph-name="G" unicode="G" horiz-adv-x="667" 
d="M566 174q-60 -59 -118 -86q-202 -96 -325 -96q-69 0 -108.5 37.5t-39.5 104.5q0 145 190 409q153 212 283 300q21 14 38 14h5q31 -5 40 -59q1 -16 6 -84q6 -105 0 -134q-5 -23 -18 -44q-17 -25 -37 -25q-21 0 -44.5 42t-29.5 42q-7 0 -18 -8q-90 -60 -179 -170
q-118 -147 -118 -248q0 -87 106 -87q52 0 146 44q81 38 136 82q11 9 13 17q3 17 -16 21q-6 2 -33 2q-33 0 -88.5 -8.5t-69.5 -8.5q-16 0 -16 15q0 31 33 73q24 32 55 51q45 9 90 17q54 10 91 10q40 0 73.5 -24t33.5 -63q0 -57 -81 -136z" />
    <glyph glyph-name="H" unicode="H" horiz-adv-x="726" 
d="M480 55q-20 0 -34.5 16.5t-8.5 35.5l3 8q6 22 27 87q17 51 25 88q6 29 -13 29q-33 0 -154 -33q-108 -30 -119 -36q-31 -19 -56 -96q-27 -83 -39 -108q-25 -54 -52 -54q-18 0 -30 16t-7 33l3 9q11 36 49 161q32 101 45 162q28 132 28 249q0 68 -10 132q5 22 35 35
q24 10 51 10q40 0 55 -16t15 -54q0 -67 -31 -215q-11 -48 -22 -91l-15 -56q0 -16 17 -16q6 0 48 13q49 15 53 16q59 9 156 27q22 4 25 20q31 145 31 266q0 65 -8 122q7 26 39 41q28 14 57 14q53 0 58 -41q4 -38 -10 -148q-12 -100 -23 -152q-14 -64 -91 -310
q-9 -29 -34 -104q-28 -60 -63 -60z" />
    <glyph glyph-name="I" unicode="I" horiz-adv-x="750" 
d="M780 767q-8 -41 -34 -55q-15 -8 -78 -12q-43 -4 -85 -7q-80 -11 -90 -26q-4 -7 -6 -16q-5 -22 -11 -67t-11 -67q-12 -59 -32 -119q-6 -17 -44 -118q-27 -71 -37 -118q-6 -25 15 -25q38 0 110.5 16.5t108.5 17.5q50 -19 50 -52q0 -48 -76 -48q-7 0 -21.5 1t-21.5 1
q-73 0 -202 -28q-102 -22 -204 -45q-90 -17 -98 -17q-22 0 -41.5 16t-14.5 37q5 25 40 39q17 7 94 20l103 18q45 8 59 43q42 101 77 268q23 105 23 159q0 60 -27 60q-22 0 -85.5 -28.5t-89.5 -28.5q-29 0 -44 30q-13 27 -7 56q8 37 44 64l296 78q171 44 297 47
q46 -29 46 -74q0 -9 -3 -20z" />
    <glyph glyph-name="J" unicode="J" horiz-adv-x="747" 
d="M714 610q-41 -195 -133 -359q-128 -229 -285 -229q-82 0 -143 78q-39 49 -80 148q-28 67 -24 85q4 19 22 32t38 13q30 0 42 -32q2 -17 9 -53q31 -168 138 -168q92 0 171 120q62 95 84 201q10 44 12 107q3 86 -20 86q-14 0 -44.5 -9.5t-45.5 -9.5q-27 0 -27 24q0 42 57 86
q16 13 82 52q20 12 59 36q37 21 63 21q44 0 44 -82q1 -55 -19 -147z" />
    <glyph glyph-name="K" unicode="K" horiz-adv-x="703" 
d="M355 383q4 -52 87 -154q66 -81 66 -132q0 -48 -47 -48q-19 0 -34 23q-136 207 -209 207q-49 0 -85 -74q-20 -46 -61 -138q-34 -74 -66 -74q-15 0 -24.5 11.5t-9.5 26.5q0 25 51 179q40 119 53 180q28 130 28 244q0 62 -8 120q5 22 35 35q24 10 51 10q62 0 68 -42
q8 -51 -48 -314q-9 -40 3 -40q16 0 51 29q205 169 365 428q11 9 27 9q29 0 56 -25t27 -54q0 -6 -1 -12q-6 -29 -133 -163q-116 -123 -163 -162q-41 -33 -79 -70z" />
    <glyph glyph-name="L" unicode="L" horiz-adv-x="599" 
d="M33 36q-17 -18 -33 -18q-32 0 -32 38q0 17 23 81q21 60 25 71q75 243 75 440q0 68 -10 131q7 23 41 35q27 10 57 10q71 0 76 -42q1 -12 1 -28q0 -64 -25 -182q-17 -79 -64 -203q-33 -84 -73 -201l-1 -5q-3 -11 11 -11q4 0 12 3q219 74 389 74q26 0 44 -10q22 -12 17 -36
q-7 -33 -74 -38q-29 -2 -37 -2q-172 -22 -422 -107z" />
    <glyph glyph-name="M" unicode="M" horiz-adv-x="906" 
d="M674 38q-15 0 -25 12t-10 28q0 13 18 70q12 39 16 59q8 35 15 117q8 93 -3 93q-12 -4 -69 -100q-77 -127 -112 -174q-69 -92 -111 -92q-54 0 -93 110q-16 53 -49 157q-4 11 -12 11q-7 0 -12 -8q-14 -26 -31 -75l-26 -75q-19 -48 -34 -91q-4 -14 -17 -49q-23 -54 -54 -54
q-18 0 -29 16t-7 34l1 7q10 32 43 144q25 86 38 145q31 145 31 268q0 78 -13 148q13 42 96 42q78 0 85 -45q5 -34 -3 -85q-12 -72 -13 -85q-2 -69 31 -202q37 -157 84 -157q55 0 171 233q31 63 132 294q0 4 -7 43q-5 31 -3 40q5 23 43 34q28 8 60 8q77 0 84 -40
q7 -38 -6 -142q-11 -88 -24 -150t-97 -334q-17 -54 -33 -100q-26 -55 -55 -55z" />
    <glyph glyph-name="N" unicode="N" horiz-adv-x="782" 
d="M719 422q-82 -388 -239 -388q-66 0 -123 82q-34 50 -76 153q-34 83 -42 84q-10 -3 -60 -138l-61 -164q-26 -54 -55 -54q-36 0 -36 39q0 18 23 81q11 30 24 70q70 236 70 426q0 77 -11 145q11 43 99 43q76 0 83 -40q5 -23 -3 -65q-8 -45 -6 -65q0 -5 17 -81
q85 -396 175 -396q52 0 82 140q26 123 26 275q0 121 -19 267q6 23 41 35q27 10 57 10q69 0 76 -42q1 -7 0 -50q-3 -186 -42 -367z" />
    <glyph glyph-name="O" unicode="O" horiz-adv-x="768" 
d="M738 577q-34 -159 -145 -311.5t-252 -229.5q-92 -50 -162 -50q-110 0 -147 99q-16 44 -16 99q0 46 12 101q33 157 145 310.5t251 230.5q92 51 162 51q111 0 147 -100q17 -44 17 -99q0 -46 -12 -101zM584 702q-52 0 -115 -30q-127 -61 -226 -168t-145 -238
q-16 -45 -16 -81q1 -80 87 -80q102 0 221 88q96 71 172 173q82 109 102 200q6 28 6 51q0 85 -86 85z" />
    <glyph glyph-name="P" unicode="P" horiz-adv-x="666" 
d="M488 397q-145 -150 -342 -243q-17 -49 -32 -98q-30 -68 -65 -68q-32 0 -32 38q0 19 22 81q19 55 24 70q69 243 69 424q0 77 -12 144q8 25 40 38q26 10 57 10q16 0 27 -3q185 69 289 69q63 0 105.5 -33t42.5 -94q0 -135 -193 -335zM402 677q-124 0 -132 -36
q-5 -26 -12 -77.5t-13 -77.5q-14 -69 -35 -140q-10 -31 -19 -58q-1 -5 -1 -9q0 -8 6 -8q5 0 23 10q88 51 175 134q124 118 124 194q0 68 -116 68z" />
    <glyph glyph-name="Q" unicode="Q" horiz-adv-x="775" 
d="M743 570q-30 -140 -128 -286q-4 -7 -53 -69q-43 -56 -45 -62q-1 -8 30 -70q25 -52 25 -83q0 -24 -17 -41q-13 -12 -28 -12q-21 0 -49.5 64.5t-42.5 64.5q-7 0 -49 -27q-117 -76 -201 -76q-111 0 -148 100q-16 44 -16 99q0 46 12 101q34 160 145.5 315t252.5 235
q89 51 161 51q112 0 148 -101q15 -43 15 -97q0 -48 -12 -106zM590 697q-53 0 -115 -30q-130 -62 -238 -184q-116 -130 -144 -261q-6 -27 -6 -48q0 -83 86 -83q89 0 175 61q15 11 17 18q2 11 -57 78.5t-55 87.5q4 17 51 17q38 0 67 -10q6 -8 72 -86q9 -10 18 -10q11 0 33 22
q145 146 176 293q6 27 6 48q1 87 -86 87z" />
    <glyph glyph-name="R" unicode="R" horiz-adv-x="666" 
d="M465 65q-10 0 -43 20q-59 36 -106 51q-116 37 -151 37q-13 0 -30 -48q-27 -74 -34 -90q-23 -49 -50 -49q-18 0 -29 15.5t-5 32.5l2 8q10 33 44 150q28 91 40 151q30 138 30 257q0 76 -12 144q6 25 39 39q26 11 56 11q14 0 25 -3q178 66 279 66q64 0 106 -29
q48 -33 48 -94q0 -102 -112 -246q-77 -100 -170 -173l-45 -33q-36 -27 -38 -34q-1 -5 53 -28q71 -30 100 -50q50 -34 43 -69q-8 -36 -40 -36zM409 678q-34 0 -75 -6q-60 -9 -63 -24q-6 -27 -13 -83t-13 -83q-13 -63 -38 -146q-9 -29 -17 -54q-2 -10 1 -10q77 29 188 134
q135 128 135 205q0 67 -105 67z" />
    <glyph glyph-name="S" unicode="S" horiz-adv-x="680" 
d="M680 392q-32 -147 -210 -278q-172 -125 -321 -125q-107 0 -150 61q-8 107 41 107q7 0 30 -18q30 -24 50 -34q35 -18 79 -18q90 0 207 67q149 85 149 180q0 46 -48 75q-41 25 -91 25q-37 0 -117 -13q-87 -14 -112 -28q-57 -31 -78 -31q-14 0 -26 9q-29 21 -29 63
q-1 22 12 80q37 177 171 270q129 90 305 90h4q47 0 88 -48q35 -42 35 -79q0 -82 -141 -91q-11 7 -22.5 29t-19.5 29q-144 -19 -203 -65q-87 -69 -87 -113q0 -15 14 -15q6 0 25 7q91 34 221 34q89 0 146 -24q82 -34 82 -110q0 -17 -4 -36z" />
    <glyph glyph-name="T" unicode="T" horiz-adv-x="739" 
d="M747 716q-15 -10 -47 -10h-20q-27 1 -21 1q-23 0 -80 -8q-47 -7 -52 -8q-32 -9 -37 -32q-4 -19 -7 -46t-6 -48q-8 -51 -15 -84q-15 -70 -48 -171q-20 -57 -57 -170q-8 -26 -31 -92q-25 -54 -55 -54q-15 0 -26 11.5t-11 26.5q0 5 2 11l2 8q2 10 45 153q30 99 42 153
q27 130 27 229q0 38 -1 46q-4 31 -22 31q-29 0 -87 -20t-87 -20q-27 0 -43 32q-15 29 -9 57q7 33 44 60q353 86 585 91q47 -29 47 -73q0 -53 -32 -74z" />
    <glyph glyph-name="U" unicode="U" horiz-adv-x="737" 
d="M491 52q-15 0 -25.5 11t-10.5 27q0 10 11 38.5t11 42.5q0 11 -7 11q-8 0 -71 -44q-75 -53 -126 -81q-80 -44 -129 -44q-92 0 -92 164q0 147 61 434q17 80 31 106q29 56 91 56q49 0 56 -35q-37 -159 -85 -330q-40 -140 -40 -209q0 -79 51 -79q11 0 22 2q59 11 222 134
q11 8 40 31q28 30 42 97q27 130 27 247q0 84 -15 161q6 23 40 38q29 12 56 12q55 0 61 -35q5 -35 -6 -129q-9 -80 -20 -131q-14 -69 -48 -169q-19 -56 -56 -168q-9 -29 -34 -102q-27 -56 -57 -56z" />
    <glyph glyph-name="V" unicode="V" horiz-adv-x="778" 
d="M252 4q-16 0 -35.5 14.5t-27.5 29.5q-16 28 -39 136q-18 81 -28 149q-15 108 -15 195q0 80 13 143q8 36 41 68t68 32q44 0 44 -49q0 -23 -18 -88q-11 -38 -15 -57q-26 -123 -26 -200q-1 -107 42 -181q22 -37 31 -37q13 0 46 30q162 148 287 604q51 55 95 55q47 0 62 -41
q11 -32 1 -80q-13 -61 -80 -182q-53 -96 -108 -176q-80 -115 -199 -256q-13 -17 -52 -60q-49 -49 -87 -49z" />
    <glyph glyph-name="W" unicode="W" horiz-adv-x="865" 
d="M621 59q-67 0 -139 173q-10 36 -38 98q-8 11 -13 11q-7 0 -67 -70q-55 -65 -146 -152q-121 -116 -155 -116q-16 0 -25 15.5t-4 30.5l3 7q8 32 41 145q28 93 39 146q30 137 30 254q0 75 -12 142q6 24 38 38q27 11 56 11q55 0 61 -37q3 -16 3 -37q0 -91 -37 -248
q-32 -135 -71 -242q-3 -10 -8 -22q-2 -13 4 -13q15 0 107 125q76 104 108 153q-7 42 38 102q35 46 68 46q9 0 16 -2q14 -7 18 -27q1 -12 2 -37q3 -50 25 -167q29 -157 56 -162q8 -2 16 20q16 50 36 142q30 143 30 264q0 78 -13 147q5 23 39 38q29 12 57 12q55 0 60 -36
q5 -35 -5 -128q-9 -80 -20 -131q-16 -74 -48 -171q-20 -57 -57 -170q-9 -27 -33 -98q-26 -54 -60 -54z" />
    <glyph glyph-name="X" unicode="X" horiz-adv-x="746" 
d="M512 412q-3 -12 36 -101q37 -83 50 -105l2 -3q11 -14 20 -30q15 -28 10 -52q-7 -30 -53 -30q-29 0 -46 23q-33 45 -62 96q-14 25 -52 89q-11 13 -19 13q-6 0 -19 -11l-170 -147q-66 -58 -99 -91q-13 -15 -41 -44q-37 -32 -60 -32q-16 0 -22 22q-4 16 0 34q8 35 173 197.5
t169 182.5q7 34 -99 132q-48 45 -121 79q-10 11 -7 26q7 33 48 61t76 28q38 0 92 -50q29 -28 83 -93q41 -50 48 -50q8 0 23 17q117 138 169 267q15 19 38 19q32 0 56.5 -27t24.5 -59q0 -45 -74 -142q-35 -47 -112 -136q-60 -70 -62 -83z" />
    <glyph glyph-name="Y" unicode="Y" horiz-adv-x="697" 
d="M32 3q-16 0 -29 12t-9 27q3 18 30 39q88 57 161 122q69 62 73 81q4 20 -6 37q-52 87 -89 168q-51 110 -51 161q0 37 37 75q30 30 57 30q33 0 47 -42q3 -15 9 -52q28 -154 69 -233q10 -20 19 -20q37 0 202 338q9 22 32 63q26 38 60 38q39 0 56 -42q14 -36 6 -75
q-7 -33 -28 -67q-122 -196 -269 -357q-167 -184 -338 -289q-23 -14 -39 -14z" />
    <glyph glyph-name="Z" unicode="Z" horiz-adv-x="781" 
d="M199 114q-1 -7 13 -7q8 0 21 2q45 7 145 14q95 8 145 16q2 0 31 7q17 4 31 4q21 0 40 -17t15 -37q-5 -21 -59 -32q-139 -28 -274 -36q-98 -6 -182 -20q-17 -3 -50 -10q-28 -5 -49 -5q-56 0 -52 22q6 25 38 58l276 283q224 233 232 267q6 31 -69 31q-64 0 -142 -24
q-7 -2 -140 -50q-22 -8 -38 -8q-43 0 -43 45q0 13 3 29q14 63 61 106q242 91 491 91q61 0 105 -15q65 -22 65 -72q0 -23 -18 -58q-14 -26 -24 -36q-89 -90 -276.5 -260.5t-276.5 -261.5q-17 -17 -19 -26z" />
    <glyph glyph-name="bracketleft" unicode="[" horiz-adv-x="510" 
d="M376 -73q-26 -22 -53 -24q-50 -4 -125 -4h-125q-12 -13 -25 -13q-23 0 -34 34q-9 30 -4 53q10 38 21 76q34 138 43 183q57 267 57 485q0 88 -11 176q-4 29 -1 42q7 35 67 35q22 0 36 -5l154 13q26 2 78 8q46 5 77 5q64 0 64 -58q0 -49 -41 -87q-32 -29 -71 -34
q-29 -4 -87.5 -1.5t-86.5 -0.5q-22 -2 -26 -22q-1 -5 -2 -19q-15 -207 -40 -324q-17 -82 -74 -282l-30 -105q-1 -7 -1 -13q0 -29 36 -29q28 0 83 6.5t83 6.5q71 0 72 -42q0 -32 -34 -60z" />
    <glyph glyph-name="backslash" unicode="\" horiz-adv-x="690" 
d="M610 -30q-10 -44 -43 -44q-31 0 -70 57q-18 28 -54 83l-153 232q-96 144 -171 361q-8 24 -25 71q-13 42 -6 75q8 38 42 74q37 40 73 40q19 0 27 -18q5 -33 20 -110q18 -85 55 -193q81 -232 218 -448q22 -31 75 -113q20 -31 12 -67z" />
    <glyph glyph-name="bracketright" unicode="]" horiz-adv-x="523" 
d="M349 237q-17 -80 -33 -178l-13 -86q-5 -24 -27 -53q-26 -34 -47 -34q-13 0 -21 13q-106 -1 -248 4q-22 1 -38.5 19t-16.5 40q0 67 93 67q27 0 81 -6.5t81 -6.5q43 0 52 42q2 16 13 105q26 186 46 280q22 102 99 326q3 7 5 19q5 20 -15 22q-25 3 -93 0q-56 -2 -77 1
q-45 7 -62 38q-11 20 -11 42q0 49 36 79q26 21 61 21q33 0 75 -5q50 -6 75 -8l149 -13q16 5 38 5q61 0 54 -35q-3 -13 -19 -42q-9 -15 -26 -44q-136 -261 -211 -612z" />
    <glyph glyph-name="underscore" unicode="_" horiz-adv-x="788" 
d="M452 -120q-61 0 -141 9l-139 16q-26 0 -76 8q-44 12 -39 36q4 16 19.5 27t31.5 11q26 0 58 -4l56 -7q55 -4 111 -4q209 0 379 61q20 0 26 -24q5 -19 1 -40q-11 -49 -49 -63q-29 -11 -118 -19q-75 -7 -120 -7z" />
    <glyph glyph-name="a" unicode="a" horiz-adv-x="683" 
d="M583 135l-3 -14q-6 -29 -22 -49q-20 -25 -46 -25q-22 0 -30 33q-4 17 -11 52q-4 13 -13 49l-10 11l-15 4q-248 -43 -306 -76q-17 -10 -55 -68q-31 -47 -70 -47q-18 0 -30 12t-12 30q0 22 33 61l42 48q231 284 320 500q17 40 38 142q8 37 77 37q67 0 59 -38q-1 -7 -15 -43
l8 -234q6 -126 22 -231q19 -1 34 -14t12 -31q-5 -20 -32 -31q3 -12 25 -78zM427 291l2 13q-7 59 -23 140q-3 15 -14 15q-12 0 -27 -22q-67 -92 -132 -177l1 -11l5 -4q98 24 177 34z" />
    <glyph glyph-name="b" unicode="b" horiz-adv-x="624" 
d="M54 11q-14 -11 -27 -11q-32 0 -32 36q0 18 21 78l24 67q69 222 69 408q0 75 -12 142q13 44 81 44q24 0 39 -8q188 91 303 91q93 0 92 -64q0 -102 -226 -315q34 4 63 4q58 0 97 -19q50 -26 50 -78q0 -118 -206 -249q-134 -85 -336 -126zM467 689q4 19 -25 19
q-28 0 -92 -22q-60 -21 -90 -38q-22 -12 -27 -34q-14 -68 -13 -98q1 -15 18 -15q5 0 11 1q205 123 218 187zM247 399q-40 0 -57 -23q-18 -68 -37 -128q-4 -11 -22 -60q-14 -38 -19 -60t10 -22q13 0 84 26q239 88 239 183q0 84 -198 84z" />
    <glyph glyph-name="c" unicode="c" horiz-adv-x="607" 
d="M72 2q-141 0 -141 108q0 142 223 395q149 168 319 303q59 47 87 47q34 0 36 -57q1 -77 -20 -176q-7 -36 -28 -69q-26 -44 -57 -44q-20 0 -31 42.5t-22 42.5q-7 0 -18 -6q-109 -61 -216 -170q-148 -150 -146 -250q1 -69 95 -69q110 0 307 114q31 21 84 51q10 4 27 4
q37 0 37 -31q0 -44 -48 -70q-103 -57 -242 -107q-162 -58 -246 -58z" />
    <glyph glyph-name="d" unicode="d" horiz-adv-x="782" 
d="M543 297q-185 -186 -423 -292q-16 -13 -54 -13q-30 0 -30 26q0 25 45 165q33 101 44 152q27 125 27 232q0 31 -3 61q-45 2 -45 44q0 51 102 84q66 23 200 67q106 33 201 33q76 0 125 -36q55 -41 55 -114q0 -163 -244 -409zM494 680q-105 0 -184 -29q-20 -8 -25 -30l-2 -8
q-1 -11 -12 -103q-7 -63 -16 -103q-17 -81 -54 -201q-14 -41 -26 -77q-1 -5 -1 -9q0 -9 7 -9q5 0 21 7q111 50 247 186q174 173 174 282q0 94 -129 94z" />
    <glyph glyph-name="e" unicode="e" horiz-adv-x="709" 
d="M652 131q-5 -23 -66 -48q-237 -96 -394 -96q-113 0 -175 67q-45 48 -44 120q0 27 6 58q41 190 239 380q179 171 380 249q51 1 82 -59q21 -39 21 -78q0 -15 -4 -30q-12 -58 -50 -58q-17 0 -48 18.5t-34 18.5q-59 0 -215.5 -122t-168.5 -178q-2 -12 10 -12q6 0 20 4
q206 56 318 56q63 0 63 -39q0 -33 -32 -44q-22 -2 -73 -8q-55 -7 -177 -36q-125 -30 -172 -52q-28 -13 -28 -49q0 -50 60 -79q48 -23 104 -23q63 0 145 20q36 9 147 42q30 9 47 9q15 0 28.5 -9t10.5 -22z" />
    <glyph glyph-name="f" unicode="f" horiz-adv-x="642" 
d="M570 328q-17 -1 -61 -6q-64 -7 -158 -27q-102 -21 -157 -43q-33 -13 -38 -37q-21 -100 -30 -128q-31 -96 -73 -96q-19 0 -30.5 14t-7.5 32q5 24 17 71.5t17 71.5q45 208 45 384q0 72 -8 138q6 22 21 31q8 5 35 9q51 8 184 63q121 50 178 50q68 0 105 -56q23 -35 42 -117
q-6 -31 -40 -69q-36 -41 -65 -41t-29 45q0 9 1 20q-33 56 -84 56q-65 0 -153 -33q-39 -15 -67 -137q-23 -100 -22 -165q-1 -9 8 -9q5 0 20 4q201 53 326 53q57 0 57 -36q0 -32 -33 -42z" />
    <glyph glyph-name="g" unicode="g" horiz-adv-x="677" 
d="M566 174q-60 -59 -118 -86q-202 -96 -325 -96q-69 0 -108.5 37.5t-39.5 104.5q0 145 190 409q153 212 283 300q21 14 38 14h5q31 -5 40 -59q1 -16 6 -84q6 -105 0 -134q-5 -23 -18 -44q-17 -25 -37 -25q-21 0 -44.5 42t-29.5 42q-7 0 -18 -8q-90 -60 -179 -170
q-118 -147 -118 -248q0 -87 106 -87q52 0 146 44q81 38 136 82q11 9 13 17q3 17 -16 21q-6 2 -33 2q-33 0 -88.5 -8.5t-69.5 -8.5q-16 0 -16 15q0 31 33 73q24 32 55 51q45 9 90 17q54 10 91 10q40 0 73.5 -24t33.5 -63q0 -57 -81 -136z" />
    <glyph glyph-name="h" unicode="h" horiz-adv-x="722" 
d="M475 55q-20 0 -33 16t-9 36l2 8q2 10 28 88.5t26 98.5q0 17 -15 17q-32 0 -153 -33q-45 -12 -91 -24q-33 -10 -49.5 -31t-34.5 -77q-26 -80 -39 -108q-25 -54 -52 -54q-16 0 -27.5 11t-11.5 26q0 6 2 12l2 9q2 10 49 161q32 101 45 162q28 132 28 249q0 68 -10 132
q6 22 35 35q24 10 51 10q41 0 57 -17q13 -16 13 -55q0 -69 -30 -213q-12 -53 -22 -91q-15 -36 -15 -56q0 -16 16 -16q6 0 48 13q49 15 54 16q59 9 155 27q22 4 25 20q31 145 31 266q0 65 -8 122q7 26 39 42q28 13 58 13q52 0 57 -41q4 -42 -9 -148q-11 -88 -24 -152
q-12 -54 -91 -310q-8 -29 -34 -104q-25 -60 -63 -60z" />
    <glyph glyph-name="i" unicode="i" horiz-adv-x="335" 
d="M74 17q-15 0 -25 12t-10 28q0 19 23 81q20 53 25 70q74 244 73 434q0 71 -11 137q6 22 36 35q24 10 51 10q62 0 69 -42q4 -29 -8 -124q-19 -156 -69 -304q-21 -58 -61 -174q-9 -30 -37 -108q-28 -55 -56 -55z" />
    <glyph glyph-name="j" unicode="j" horiz-adv-x="747" 
d="M714 610q-41 -192 -134 -359q-128 -229 -284 -229q-82 0 -143 78q-39 49 -80 148q-28 67 -24 85q4 19 21.5 32t37.5 13q31 0 43 -32q2 -15 9 -53q30 -168 137 -168q93 0 172 120q62 95 84 201q10 44 12 107q3 86 -20 86q-15 0 -44.5 -9.5t-45.5 -9.5q-27 0 -27 24
q0 42 57 86q16 13 82 52q19 12 58 36q37 21 63 21q46 0 45 -86q0 -54 -19 -143z" />
    <glyph glyph-name="k" unicode="k" horiz-adv-x="703" 
d="M355 383q4 -52 87 -154q66 -81 66 -132q0 -48 -47 -48q-19 0 -34 23q-136 207 -209 207q-49 0 -85 -74q-20 -46 -61 -138q-34 -74 -66 -74q-15 0 -24.5 11.5t-9.5 26.5q0 25 51 179q40 119 53 180q28 130 28 244q0 62 -8 120q5 22 35 35q24 10 51 10q62 0 68 -42
q8 -51 -48 -314q-9 -40 3 -40q16 0 51 29q205 169 365 428q11 9 27 9q29 0 56 -25t27 -54q0 -6 -1 -12q-6 -29 -133 -163q-116 -123 -163 -162q-41 -33 -79 -70z" />
    <glyph glyph-name="l" unicode="l" horiz-adv-x="599" 
d="M33 36q-17 -18 -33 -18q-32 0 -32 38q0 17 23 81q21 60 25 71q75 243 75 440q0 68 -10 131q7 23 41 35q27 10 57 10q71 0 76 -42q1 -12 1 -28q0 -64 -25 -182q-17 -79 -64 -203q-33 -84 -73 -201l-1 -5q-3 -11 11 -11q4 0 12 3q219 74 389 74q26 0 44 -10q22 -12 17 -36
q-7 -33 -74 -38q-29 -2 -37 -2q-172 -22 -422 -107z" />
    <glyph glyph-name="m" unicode="m" horiz-adv-x="906" 
d="M674 38q-15 0 -25 12t-10 28q0 13 18 70q12 39 16 59q8 35 15 117q8 93 -3 93q-12 -4 -69 -100q-77 -127 -112 -174q-69 -92 -111 -92q-54 0 -93 110q-16 53 -49 157q-4 11 -12 11q-7 0 -12 -8q-14 -26 -31 -75l-26 -75q-19 -48 -34 -91q-4 -14 -17 -49q-23 -54 -54 -54
q-18 0 -29 16t-7 34l1 7q10 32 43 144q25 86 38 145q31 145 31 268q0 78 -13 148q13 42 96 42q78 0 85 -45q5 -34 -3 -85q-12 -72 -13 -85q-2 -69 31 -202q37 -157 84 -157q55 0 171 233q31 63 132 294q0 4 -7 43q-5 31 -3 40q5 23 43 34q28 8 60 8q77 0 84 -40
q7 -38 -6 -142q-11 -88 -24 -150t-97 -334q-17 -54 -33 -100q-26 -55 -55 -55z" />
    <glyph glyph-name="n" unicode="n" horiz-adv-x="782" 
d="M719 422q-82 -388 -239 -388q-66 0 -123 82q-34 50 -76 153q-34 83 -42 84q-10 -3 -60 -138l-61 -164q-26 -54 -55 -54q-36 0 -36 39q0 18 23 81q11 30 24 70q70 236 70 426q0 77 -11 145q11 43 99 43q76 0 83 -40q5 -23 -3 -65q-8 -45 -6 -65q0 -5 17 -81
q85 -396 175 -396q52 0 82 140q26 123 26 275q0 121 -19 267q6 23 41 35q27 10 57 10q69 0 76 -42q1 -7 0 -50q-3 -186 -42 -367z" />
    <glyph glyph-name="o" unicode="o" horiz-adv-x="771" 
d="M739 577q-34 -158 -145 -310q-113 -155 -253 -231q-92 -50 -162 -50q-109 0 -146 99q-16 44 -16 99q0 46 12 101q34 159 144.5 311t251.5 230q92 51 162 51q110 0 146 -100q17 -45 17 -101q0 -46 -11 -99zM584 702q-52 0 -115 -30q-126 -60 -225.5 -168t-145.5 -238
q-15 -41 -15 -80q0 -81 86 -81q95 0 207 78q95 66 176 169q92 115 113 214q5 28 6 50q0 86 -87 86z" />
    <glyph glyph-name="p" unicode="p" horiz-adv-x="666" 
d="M488 397q-145 -150 -342 -243q-10 -33 -33 -98q-26 -68 -65 -68q-31 0 -31 38q0 19 22 81q19 55 24 70q69 243 69 424q0 77 -12 144q8 25 40 38q26 10 57 10q16 0 27 -3q185 69 289 69q63 0 105.5 -33t42.5 -94q0 -135 -193 -335zM401 677q-123 0 -131 -36
q-5 -26 -12 -77.5t-13 -77.5q-14 -69 -35 -140q-10 -31 -19 -58q-1 -5 -1 -9q0 -8 6 -8t23 10q88 51 175 134q124 117 124 193q1 69 -117 69z" />
    <glyph glyph-name="q" unicode="q" horiz-adv-x="775" 
d="M743 570q-30 -140 -128 -286q-4 -7 -53 -69q-43 -56 -45 -62q-1 -8 30 -70q25 -52 25 -83q0 -24 -17 -41q-13 -12 -28 -12q-21 0 -49.5 64.5t-42.5 64.5q-7 0 -49 -27q-117 -76 -201 -76q-111 0 -148 100q-16 44 -16 99q0 46 12 101q34 160 145.5 315t252.5 235
q89 51 161 51q112 0 148 -101q15 -43 15 -97q0 -48 -12 -106zM590 697q-53 0 -115 -30q-130 -62 -238 -184q-116 -130 -144 -261q-6 -27 -6 -48q0 -83 86 -83q89 0 175 61q15 11 17 18q2 11 -57 78.5t-55 87.5q4 17 51 17q38 0 67 -10q6 -8 72 -86q9 -10 18 -10q11 0 33 22
q145 146 176 293q6 27 6 48q1 87 -86 87z" />
    <glyph glyph-name="r" unicode="r" horiz-adv-x="666" 
d="M465 65q-10 0 -43 20q-59 36 -106 51q-116 37 -151 37q-13 0 -30 -48q-27 -74 -34 -90q-23 -49 -50 -49q-18 0 -29 15.5t-5 32.5l2 8q10 33 44 150q28 91 40 151q30 138 30 257q0 76 -12 144q6 25 39 39q26 11 56 11q14 0 25 -3q178 66 279 66q64 0 106 -29
q48 -33 48 -94q0 -102 -112 -246q-77 -100 -170 -173l-45 -33q-36 -27 -38 -34q-1 -5 53 -28q71 -30 100 -50q50 -34 43 -69q-8 -36 -40 -36zM409 678q-34 0 -75 -6q-60 -9 -63 -24q-6 -27 -13 -83t-13 -83q-13 -63 -38 -146q-9 -29 -17 -54q-2 -10 1 -10q77 29 188 134
q135 128 135 205q0 67 -105 67z" />
    <glyph glyph-name="s" unicode="s" horiz-adv-x="680" 
d="M680 392q-32 -148 -206 -277q-170 -126 -325 -126q-107 0 -150 61q-8 107 41 107q7 0 30 -18q28 -23 51 -34q35 -18 78 -18q90 0 207 67q149 85 149 180q0 46 -48 75q-41 25 -91 25q-37 0 -117 -13q-87 -14 -112 -28q-57 -31 -78 -31q-14 0 -26 9q-29 21 -29 63
q-1 22 12 80q37 177 171 270q130 90 305 90h4q47 0 88 -48q35 -42 35 -79q0 -82 -141 -91q-11 7 -22.5 29t-19.5 29q-144 -19 -203 -65q-87 -69 -87 -113q0 -15 14 -15q6 0 25 7q91 34 221 34q89 0 146 -24q82 -34 82 -110q0 -17 -4 -36z" />
    <glyph glyph-name="t" unicode="t" horiz-adv-x="734" 
d="M739 716q-14 -10 -46 -10h-20q-27 1 -21 1q-23 0 -80 -8q-47 -7 -52 -8q-33 -9 -38 -32q-4 -19 -7 -47l-5 -47q-15 -96 -51 -215q-14 -45 -70 -210q-8 -31 -31 -92q-25 -54 -55 -54q-19 0 -29 15.5t-6 33.5l2 8q2 10 45 153q30 99 42 153q27 130 27 229q0 38 -1 46
q-4 31 -22 31q-29 0 -86.5 -20t-87.5 -20q-28 0 -43 32q-14 29 -8 57q7 33 43 60q353 86 585 91q47 -29 47 -73q0 -52 -32 -74z" />
    <glyph glyph-name="u" unicode="u" horiz-adv-x="737" 
d="M491 52q-15 0 -25.5 11t-10.5 27q0 10 11 38.5t11 42.5q0 11 -7 11q-8 0 -71 -44q-75 -53 -126 -81q-80 -44 -129 -44q-92 0 -92 164q0 147 61 434q17 80 31 106q29 56 91 56q49 0 56 -35q-37 -159 -85 -330q-40 -140 -40 -209q0 -79 51 -79q11 0 22 2q59 11 222 134
q11 8 40 31q28 30 42 97q27 130 27 247q0 84 -15 161q6 23 40 38q29 12 56 12q55 0 61 -35q5 -35 -6 -129q-9 -80 -20 -131q-14 -69 -48 -169q-19 -56 -56 -168q-9 -29 -34 -102q-27 -56 -57 -56z" />
    <glyph glyph-name="v" unicode="v" horiz-adv-x="768" 
d="M245 4q-16 0 -35.5 14.5t-27.5 29.5q-16 28 -39 136q-18 81 -28 149q-15 108 -15 195q0 80 13 143q8 36 41 68t68 32q44 0 44 -49q0 -22 -18 -88q-10 -38 -14 -57q-27 -125 -27 -200q-2 -106 42 -181q22 -37 31 -37q13 0 46 30q162 148 287 604q51 55 96 55q46 0 61 -41
q11 -33 1 -80q-14 -64 -79 -182q-49 -89 -109 -176q-80 -115 -199 -256q-13 -17 -52 -60q-49 -49 -87 -49z" />
    <glyph glyph-name="w" unicode="w" horiz-adv-x="865" 
d="M621 59q-67 0 -139 173q-10 36 -38 98q-8 11 -13 11q-7 0 -67 -70q-55 -65 -146 -152q-121 -116 -155 -116q-16 0 -25 15.5t-4 30.5l3 7q8 32 41 145q28 93 39 146q30 137 30 254q0 75 -12 142q6 24 38 38q27 11 56 11q55 0 61 -37q3 -16 3 -37q0 -91 -37 -248
q-32 -135 -71 -242q-3 -10 -8 -22q-2 -13 4 -13q15 0 107 125q76 104 108 153q-7 42 38 102q35 46 68 46q9 0 16 -2q14 -7 18 -27q1 -12 2 -37q3 -50 25 -167q29 -157 56 -162q8 -2 16 20q16 50 36 142q30 143 30 264q0 78 -13 147q5 23 39 38q29 12 57 12q55 0 60 -36
q5 -35 -5 -128q-9 -80 -20 -131q-16 -74 -48 -171q-20 -57 -57 -170q-9 -27 -33 -98q-26 -54 -60 -54z" />
    <glyph glyph-name="x" unicode="x" horiz-adv-x="746" 
d="M512 412q-3 -12 36 -101q37 -83 50 -105l2 -3q11 -14 20 -30q15 -28 10 -52q-7 -30 -53 -30q-28 0 -46 23q-32 44 -62 96q-14 25 -52 89q-9 13 -18 13q-7 0 -20 -11q-47 -41 -170 -147q-62 -54 -99 -91q-11 -12 -41 -44q-36 -32 -60 -32q-16 0 -21 22q-4 16 -1 34
q8 35 173 197.5t169 182.5q7 34 -99 132q-48 45 -121 79q-9 11 -6 26q8 34 48.5 61.5t75.5 27.5q37 0 91 -50q29 -28 83 -93q41 -50 48 -50q8 0 23 17q117 138 169 267q15 19 38 19q32 0 57 -27t25 -60q0 -44 -74 -141q-32 -43 -113 -136q-59 -69 -62 -83z" />
    <glyph glyph-name="y" unicode="y" horiz-adv-x="684" 
d="M33 3q-15 0 -28.5 12t-9.5 27q3 18 30 39q85 53 162 122q68 61 72 81t-6 37q-49 82 -88 168q-51 111 -51 162q0 36 37 74q29 30 57 30q32 0 46 -42q3 -15 10 -52q29 -157 68 -233q10 -20 20 -20q37 0 202 338q9 22 31 63q27 38 60 38q40 0 56 -42q14 -35 6 -75
q-7 -33 -28 -67q-122 -197 -267 -356q-167 -184 -340 -290q-23 -14 -39 -14z" />
    <glyph glyph-name="z" unicode="z" horiz-adv-x="781" 
d="M198 114q-1 -7 14 -7q6 0 20 2q32 5 232 23q32 3 58 7q-1 0 37 8q14 3 25 3q21 0 40.5 -17t15.5 -37q-5 -21 -60 -32q-140 -28 -273 -36q-99 -6 -183 -20q-17 -4 -49 -10q-27 -5 -49 -5q-56 0 -52 22q6 26 37 58l276 283q224 233 232 267q6 31 -69 31q-63 0 -141 -24
q-20 -6 -141 -50q-22 -8 -37 -8q-44 0 -44 45q0 13 3 29q14 63 61 106q243 91 491 91q62 0 106 -15q64 -22 64 -71q0 -24 -18 -59q-12 -24 -24 -36q-89 -89 -276 -260t-277 -262q-17 -17 -19 -26z" />
    <glyph glyph-name="braceleft" unicode="{" horiz-adv-x="675" 
d="M698 656q-7 -30 -47 -30q-10 0 -66 17l-143 43q-46 14 -107 50q-69 41 -90 73q-7 12 -4 29q5 24 30 54q27 34 48 34l6 -1q82 -136 278 -205q19 -5 57.5 -16.5t39.5 -30.5q0 -7 -2 -17zM565 436q-5 -24 -44 -36q-18 -6 -145 -20q-123 -14 -150 -14q-38 0 -92 7
q-64 8 -87 21q-15 8 -15 34q0 13 4 30q13 62 42 64q111 -63 280 -63q44 0 88 4q16 1 46.5 6t43.5 5q16 0 24 -11.5t5 -26.5zM582 212q-6 -31 -126 -100l-108 -60q-53 -31 -127 -60q-92 -36 -129 -36q-26 0 -39 31q-10 22 -10 41q0 33 18 43q178 1 390 120q17 11 53.5 33
t48.5 22t22 -10.5t7 -23.5z" />
    <glyph glyph-name="bar" unicode="|" horiz-adv-x="276" 
d="M330 841l-21 -37q-30 -53 -66 -134q-83 -190 -131 -413q-9 -42 -20.5 -128t-20.5 -128q-6 -26 -27 -52q-24 -28 -49 -28q-28 0 -29 56q0 -2 15 114l23 179q15 110 30 180q28 134 98 313q7 18 27 64q18 32 56.5 52t76.5 20q49 0 49 -30q0 -4 -1.5 -8t-9.5 -20z" />
    <glyph glyph-name="braceright" unicode="}" horiz-adv-x="648" 
d="M99 626q-41 0 -34 30q6 29 29 38q48 13 91 26q228 71 367 205q3 1 7 1q22 0 32.5 -33.5t5.5 -56.5q-3 -16 -15 -27q-33 -32 -119 -72q-77 -36 -291 -94q-63 -17 -73 -17zM413 366q-39 0 -144 12q-110 13 -137 22q-35 13 -30 36q8 38 47 38q16 0 43 -4q34 -6 44 -7
q42 -4 85 -4q168 0 305 63q21 -1 21 -32q0 -14 -4 -34q-10 -50 -48 -67q-18 -8 -86 -16q-57 -7 -96 -7zM452 71q7 -5 7 -16q0 -28 -32 -66q-28 -33 -54 -33q-38 0 -113 36q-58 27 -110.5 67.5t-103.5 80.5q-12 10 -43 36q-15 19 -12 36q3 12 17.5 23t27.5 11q11 0 40 -23
q12 -11 39 -32q162 -119 337 -120z" />
    <glyph glyph-name="dieresis" unicode="&#xa8;" 
 />
    <glyph glyph-name="copyright" unicode="&#xa9;" horiz-adv-x="1012" 
d="M981 485q-46 -217 -237 -380q-194 -166 -413 -166q-169 0 -252 121q-55 79 -55 185q0 48 12 102q46 218 236 382q194 168 413 168q170 0 253 -122q55 -81 55 -187q0 -49 -12 -103zM885 445q6 31 6 59q0 84 -57 143q-73 74 -198 74q-79 0 -166.5 -31t-151.5 -80
q-67 -51 -97 -83q-94 -102 -118 -211q-7 -36 -7 -68q0 -85 53 -144q71 -78 203 -78q175 0 336 124.5t197 294.5zM323 120q-94 0 -94 75q0 12 3 26q14 64 117 197q84 106 156 176q104 99 154 99q19 0 17 -40q-2 -18 -7 -55l-6 -56q-1 -6 -1 -8q-6 -25 -19 -46
q-18 -28 -38 -28q-11 0 -19 28.5t-17 28.5q-5 0 -12 -4q-71 -42 -143 -113q-101 -100 -100 -166q0 -49 64 -49q50 0 116 30q35 16 103 55q52 30 63 30q24 0 23 -22q0 -29 -32 -47q-68 -38 -163 -72q-110 -39 -165 -39z" />
    <glyph glyph-name="registered" unicode="&#xae;" horiz-adv-x="1012" 
d="M980 486q-46 -218 -235 -381q-194 -166 -414 -166q-170 0 -252 121q-54 80 -54 186q0 49 11 103q46 217 237.5 382.5t410.5 165.5q170 0 253 -122q55 -81 55 -187q0 -48 -12 -102zM885 442q7 32 7 60q0 84 -57 143q-72 76 -198 76q-171 0 -333 -121q-167 -124 -202 -288
q-7 -36 -7 -68q0 -144 157 -202q43 -16 89 -16q31 0 87 8q152 21 287 140q139 121 170 268zM579 140q-11 0 -46 20q-21 12 -50 27q-74 23 -97 23q-9 0 -32 -60.5t-44 -60.5q-23 0 -23 24q0 3 1 7l1 5q1 4 29 98q17 59 26 99q19 89 19 165q0 51 -9 96q9 32 63 32q10 0 16 -2
q117 43 183 43q42 0 69 -19q31 -21 31 -61q0 -68 -75 -163q-49 -62 -115 -115q-15 -10 -42 -32q-3 -2 -6 -7l69 -34q64 -32 58 -61q-5 -24 -26 -24zM541 539q-46 0 -76 -10q-11 -4 -16 -30q-3 -19 -5 -37q-9 -58 -26 -118q-13 -42 -17 -63q-1 -6 1 -6q50 21 121 87
q88 82 88 133q0 44 -70 44z" />
    <glyph glyph-name="Ograve" unicode="&#xd2;" 
 />
    <glyph glyph-name="Oacute" unicode="&#xd3;" 
 />
    <glyph glyph-name="Ocircumflex" unicode="&#xd4;" 
 />
    <glyph glyph-name="Otilde" unicode="&#xd5;" 
 />
    <glyph glyph-name="quoteleft" unicode="&#x2018;" horiz-adv-x="348" 
d="M197 544q-42 0 -60 112q-3 25 -11 74q-19 98 -24 161q24 38 71 38q24 0 32.5 -7.5t7.5 -30.5q-4 -63 7 -147q2 -10 24 -145q1 -21 -12.5 -38t-34.5 -17z" />
    <glyph glyph-name="quoteright" unicode="&#x2019;" horiz-adv-x="286" 
d="M281 891q-12 -23 -156 -263q-7 -12 -27 -44q-32 -40 -60 -40q-16 0 -24.5 12.5t-4.5 28.5q1 6 6 14l83 144q45 78 72 148q9 23 20 30.5t35 7.5q47 0 56 -38z" />
    <glyph glyph-name="quotedblleft" unicode="&#x201c;" horiz-adv-x="545" 
d="M394 544q-42 0 -60 112l-12 74q-17 79 -23 161q24 38 71 38q24 0 32.5 -7.5t7.5 -30.5q-4 -63 7 -147q2 -10 24 -145q1 -21 -12.5 -38t-34.5 -17zM197 544q-42 0 -60 112q-3 25 -11 74q-19 98 -24 161q24 38 71 38q24 0 32.5 -7.5t7.5 -30.5q-4 -63 7 -147q2 -10 24 -145
q1 -21 -12.5 -38t-34.5 -17z" />
    <glyph glyph-name="quotedblright" unicode="&#x201d;" horiz-adv-x="483" 
d="M477 891q-24 -46 -93 -161q-24 -42 -91 -146q-29 -41 -58 -41q-14 0 -24 12.5t-7 26.5q2 9 7 17l83 144q45 79 71 148q14 38 55 38q47 0 57 -38zM280 891q-12 -23 -156 -263q-7 -13 -27 -44q-29 -40 -59 -40q-16 0 -24 12.5t-5 28.5q2 9 5 14l83 144q47 82 72 148
q14 38 55 38q47 0 56 -38z" />
    <glyph glyph-name="ellipsis" unicode="&#x2026;" horiz-adv-x="983" 
d="M804 6q-25 0 -42 13.5t-17 37.5q0 46 54 84q43 30 81 30q25 0 41.5 -14t16.5 -38q0 -46 -53 -83q-42 -30 -81 -30zM464 3q-24 0 -41 13.5t-17 37.5q0 46 53 84q44 30 82 30q24 0 40.5 -14t16.5 -38q0 -46 -52 -83q-43 -30 -82 -30zM125 0q-25 0 -42 13.5t-17 37.5
q0 46 53 84q44 30 82 30q24 0 40.5 -14t16.5 -38q0 -46 -52 -83q-42 -30 -81 -30z" />
    <glyph glyph-name="glyph107" 
 />
    <glyph glyph-name="glyph108" 
 />
    <glyph glyph-name="glyph95" 
 />
    <glyph glyph-name="glyph108" 
 />
    </font>
</defs>
</svg>
